<?xml version="1.0" encoding="utf-8"?>
<!-- Generator: Adobe Illustrator 20.1.0, SVG Export Plug-In . SVG Version: 6.00 Build 0)  -->
<svg version="1.1" id="Слой_1" xmlns="http://www.w3.org/2000/svg" xmlns:xlink="http://www.w3.org/1999/xlink" x="0px" y="0px"
	 viewBox="0 0 52 52" style="enable-background:new 0 0 52 52;" xml:space="preserve">
<style type="text/css">
	.st0{fill:none;stroke:#FFFFFF;stroke-width:2;stroke-linecap:round;stroke-linejoin:round;}
	.st1{enable-background:new    ;}
	.st2{fill:#FFFFFF;}
</style>
<circle class="st0" cx="26" cy="26" r="25"/>
<g class="st1">
	<path class="st2" d="M25.2,24.3c0,2.9-0.5,5-1.5,6.4s-2.5,2-4.5,2s-3.4-0.7-4.4-2.1s-1.5-3.5-1.5-6.3c0-2.9,0.5-5.1,1.5-6.4
		c1-1.4,2.5-2,4.5-2s3.4,0.7,4.4,2.1C24.7,19.4,25.2,21.5,25.2,24.3z M17.7,24.3c0,1.9,0.1,3.1,0.3,3.8s0.6,1,1.2,1s0.9-0.4,1.2-1.1
		c0.2-0.7,0.3-2,0.3-3.8s-0.1-3.1-0.3-3.8c-0.2-0.7-0.6-1.1-1.2-1.1s-0.9,0.4-1.2,1.1C17.9,21.1,17.7,22.4,17.7,24.3z"/>
	<path class="st2" d="M36.6,32.5h-4.5v-8.7c0-1.1,0-2,0.1-2.9c-0.3,0.3-0.6,0.7-1,1.1l-1.9,1.5L27,20.7l5.6-4.6h4V32.5z"/>
</g>
</svg>
