<?xml version="1.0" encoding="utf-8"?>
<!-- Generator: Adobe Illustrator 20.1.0, SVG Export Plug-In . SVG Version: 6.00 Build 0)  -->
<svg version="1.1" id="Слой_1" xmlns="http://www.w3.org/2000/svg" xmlns:xlink="http://www.w3.org/1999/xlink" x="0px" y="0px"
	 viewBox="0 0 52 52" style="enable-background:new 0 0 52 52;" xml:space="preserve">
<style type="text/css">
	.st0{fill:none;stroke:#FFFFFF;stroke-width:2;stroke-linecap:round;stroke-linejoin:round;}
	.st1{enable-background:new    ;}
	.st2{fill:#FFFFFF;}
</style>
<circle class="st0" cx="26" cy="26" r="25"/>
<g class="st1">
	<path class="st2" d="M25.2,24.3c0,2.9-0.5,5-1.5,6.4s-2.5,2-4.5,2s-3.4-0.7-4.4-2.1s-1.5-3.5-1.5-6.3c0-2.9,0.5-5.1,1.5-6.4
		c1-1.4,2.5-2,4.5-2s3.4,0.7,4.4,2.1C24.7,19.4,25.2,21.5,25.2,24.3z M17.7,24.3c0,1.9,0.1,3.1,0.3,3.8s0.6,1,1.2,1s0.9-0.4,1.2-1.1
		c0.2-0.7,0.3-2,0.3-3.8s-0.1-3.1-0.3-3.8c-0.2-0.7-0.6-1.1-1.2-1.1s-0.9,0.4-1.2,1.1C17.9,21.1,17.7,22.4,17.7,24.3z"/>
	<path class="st2" d="M38.6,32.5H26.7v-2.9l4-4.1c1.1-1.2,1.9-2,2.2-2.5c0.4-0.4,0.6-0.8,0.7-1.1s0.2-0.6,0.2-1s-0.1-0.8-0.4-1
		c-0.3-0.2-0.7-0.4-1.2-0.4s-1,0.1-1.6,0.4c-0.5,0.3-1.1,0.7-1.8,1.3l-2.4-2.9c0.8-0.8,1.6-1.3,2.1-1.6c0.6-0.3,1.2-0.6,1.9-0.7
		c0.7-0.2,1.4-0.3,2.3-0.3c1.1,0,2,0.2,2.8,0.6s1.5,0.9,1.9,1.6c0.5,0.7,0.7,1.5,0.7,2.3c0,0.6-0.1,1.2-0.2,1.8
		c-0.2,0.5-0.4,1.1-0.7,1.6s-0.8,1.1-1.3,1.7c-0.6,0.6-1.7,1.7-3.6,3.3v0.1h6.2L38.6,32.5L38.6,32.5z"/>
</g>
</svg>
