<?xml version="1.0" encoding="utf-8"?>
<!-- Generator: Adobe Illustrator 20.1.0, SVG Export Plug-In . SVG Version: 6.00 Build 0)  -->
<svg version="1.1" id="Слой_1" xmlns="http://www.w3.org/2000/svg" xmlns:xlink="http://www.w3.org/1999/xlink" x="0px" y="0px"
	 viewBox="0 0 52 52" style="enable-background:new 0 0 52 52;" xml:space="preserve">
<style type="text/css">
	.st0{fill:none;stroke:#FFFFFF;stroke-width:2;stroke-linecap:round;stroke-linejoin:round;}
	.st1{enable-background:new    ;}
	.st2{fill:#FFFFFF;}
</style>
<circle class="st0" cx="26.1" cy="26.5" r="25"/>
<g class="st1">
	<path class="st2" d="M25.3,24.8c0,2.9-0.5,5-1.5,6.4s-2.5,2-4.5,2s-3.4-0.7-4.4-2.1s-1.5-3.5-1.5-6.3c0-2.9,0.5-5.1,1.5-6.4
		c1-1.4,2.5-2,4.5-2s3.4,0.7,4.4,2.1C24.8,19.9,25.3,22,25.3,24.8z M17.9,24.8c0,1.9,0.1,3.1,0.3,3.8c0.2,0.7,0.6,1,1.2,1
		s0.9-0.4,1.2-1.1c0.2-0.7,0.3-2,0.3-3.8s-0.1-3.1-0.3-3.8c-0.2-0.7-0.6-1.1-1.2-1.1c-0.5,0-0.9,0.4-1.2,1.1
		C18,21.6,17.9,22.9,17.9,24.8z"/>
	<path class="st2" d="M38.2,20.1c0,1-0.3,1.9-0.9,2.6c-0.6,0.7-1.5,1.3-2.7,1.6v0.1c2.7,0.3,4.1,1.6,4.1,3.9c0,1.5-0.6,2.7-1.8,3.6
		c-1.2,0.9-2.9,1.3-5,1.3c-0.9,0-1.7-0.1-2.5-0.2c-0.8-0.1-1.6-0.4-2.4-0.7v-3.7c0.7,0.4,1.5,0.6,2.2,0.8s1.4,0.3,2.1,0.3
		c1,0,1.7-0.1,2.1-0.4C33.7,29,34,28.6,34,28c0-0.4-0.1-0.8-0.3-1s-0.6-0.4-1.1-0.5s-1.2-0.2-2-0.2h-1V23h1c2.3,0,3.4-0.6,3.4-1.7
		c0-0.4-0.2-0.8-0.5-1C33,20,32.6,19.9,32,19.9c-1,0-2.1,0.4-3.3,1.1l-1.8-3c0.9-0.6,1.8-1,2.7-1.3c0.9-0.3,2-0.4,3.1-0.4
		c1.7,0,3,0.3,4,1S38.2,19,38.2,20.1z"/>
</g>
</svg>
