<?xml version="1.0" encoding="utf-8"?>
<!-- Generator: Adobe Illustrator 20.1.0, SVG Export Plug-In . SVG Version: 6.00 Build 0)  -->
<svg version="1.1" id="Слой_1" xmlns="http://www.w3.org/2000/svg" xmlns:xlink="http://www.w3.org/1999/xlink" x="0px" y="0px"
	 viewBox="0 0 52 52" style="enable-background:new 0 0 52 52;" xml:space="preserve">
<style type="text/css">
	.st0{fill:none;stroke:#018F3F;stroke-width:2;stroke-miterlimit:10;}
	.st1{fill:#018F3F;}
</style>
<circle class="st0" cx="26" cy="26" r="25"/>
<path class="st1" d="M34.7,19.3L34.7,19.3C34.7,19.3,34.7,19.3,34.7,19.3c-0.4-0.4-1-0.4-1.4,0L23.1,29.6l-4.5-4.5c0,0,0,0,0,0
	c-0.4-0.4-1-0.4-1.4,0c-0.4,0.4-0.4,1,0,1.4l5.1,5.2c0,0,0,0,0,0c0,0,0,0,0,0c0.2,0.2,0.4,0.3,0.7,0.3c0.2,0,0.5-0.1,0.7-0.3
	c0,0,0,0,0,0l10.9-11C35.1,20.3,35.1,19.7,34.7,19.3z"/>
</svg>
