<?xml version="1.0" encoding="utf-8"?>
<!-- Generator: Adobe Illustrator 20.1.0, SVG Export Plug-In . SVG Version: 6.00 Build 0)  -->
<svg version="1.1" id="Слой_1" xmlns="http://www.w3.org/2000/svg" xmlns:xlink="http://www.w3.org/1999/xlink" x="0px" y="0px"
	 viewBox="0 0 175 61" style="enable-background:new 0 0 175 61;" xml:space="preserve">
<style type="text/css">
	.st0{fill:#2B2C35;}
	.st1{fill:#FFFFFF;}
	.st2{display:none;}
	.st3{display:inline;}
	.st4{fill:#FFFFFF;stroke:#FFFFFF;stroke-width:0.2;stroke-miterlimit:10;}
	.st5{display:inline;fill:#FFFFFF;}
	.st6{fill:url(#XMLID_19_);}
	.st7{fill:url(#XMLID_35_);}
	.st8{fill:url(#XMLID_36_);}
	.st9{fill:url(#XMLID_37_);}
	.st10{opacity:0.2;enable-background:new    ;}
	.st11{opacity:0.12;enable-background:new    ;}
	.st12{opacity:0.25;fill:#FFFFFF;enable-background:new    ;}
</style>
<rect class="st0" width="175" height="61"/>
<g>
	<path class="st1" d="M38.1,29.2c0-4.2,3.4-6.2,3.6-6.3c-1.9-2.8-5-3.2-6-3.3c-2.5-0.3-5,1.5-6.3,1.5c-1.3,0-3.3-1.5-5.5-1.4
		c-2.8,0-5.3,1.6-6.8,4.1c-2.9,5.1-0.7,12.5,2.1,16.6c1.4,2,3,4.2,5.2,4.2c2.1-0.1,2.9-1.3,5.4-1.3c2.5,0,3.2,1.3,5.4,1.3
		c2.2,0,3.7-2,5-4c1.6-2.3,2.3-4.6,2.3-4.7C42.5,35.8,38.1,34.2,38.1,29.2L38.1,29.2z M34,17c1.1-1.4,1.9-3.3,1.7-5.3
		c-1.6,0.1-3.7,1.1-4.8,2.5c-1,1.2-2,3.2-1.7,5.1C30.9,19.4,32.8,18.4,34,17L34,17z"/>
	<g>
		<path class="st1" d="M68.4,44.3h-2.9l-1.6-5h-5.6l-1.5,5H54l5.5-17.2h3.4L68.4,44.3L68.4,44.3z M63.4,37.1L62,32.7
			c-0.2-0.5-0.4-1.5-0.9-3.2h-0.1c-0.2,0.7-0.4,1.8-0.8,3.2l-1.4,4.5H63.4z M82.6,38c0,2.1-0.6,3.8-1.7,5c-1,1.1-2.3,1.6-3.8,1.6
			c-1.6,0-2.8-0.6-3.5-1.8v6.5h-2.7V36c0-1.3,0-2.7-0.1-4.1h2.4l0.2,2h0.1c0.9-1.5,2.3-2.2,4.2-2.2c1.5,0,2.7,0.6,3.7,1.7
			C82.1,34.6,82.6,36.1,82.6,38L82.6,38z M79.8,38.1c0-1.2-0.3-2.2-0.8-3c-0.6-0.8-1.4-1.2-2.4-1.2c-0.7,0-1.3,0.2-1.8,0.7
			c-0.6,0.5-0.9,1-1.1,1.8c-0.1,0.3-0.1,0.6-0.1,0.8v2.1c0,0.9,0.3,1.7,0.8,2.3c0.6,0.6,1.3,0.9,2.2,0.9c1,0,1.8-0.4,2.4-1.2
			C79.5,40.4,79.8,39.4,79.8,38.1z M96.9,38c0,2.1-0.6,3.8-1.7,5c-1,1.1-2.3,1.6-3.8,1.6c-1.6,0-2.8-0.6-3.5-1.8v6.5H85V36
			c0-1.3,0-2.7-0.1-4.1h2.4l0.2,2h0.1c0.9-1.5,2.3-2.2,4.2-2.2c1.5,0,2.7,0.6,3.7,1.7C96.4,34.6,96.9,36.1,96.9,38L96.9,38z
			 M94.1,38.1c0-1.2-0.3-2.2-0.8-3c-0.6-0.8-1.4-1.2-2.4-1.2c-0.7,0-1.3,0.2-1.8,0.7c-0.6,0.5-0.9,1-1.1,1.8
			c-0.1,0.3-0.1,0.6-0.1,0.8v2.1c0,0.9,0.3,1.7,0.8,2.3c0.6,0.6,1.3,0.9,2.2,0.9c1,0,1.8-0.4,2.4-1.2C93.8,40.4,94.1,39.4,94.1,38.1
			z M112.8,39.5c0,1.5-0.5,2.6-1.5,3.6c-1.1,1-2.7,1.5-4.7,1.5c-1.8,0-3.3-0.4-4.4-1.1l0.6-2.3c1.2,0.7,2.5,1.1,4,1.1
			c1,0,1.8-0.2,2.4-0.7c0.6-0.5,0.9-1.1,0.9-1.9c0-0.7-0.2-1.3-0.7-1.8c-0.5-0.5-1.3-0.9-2.4-1.3c-3-1.1-4.5-2.8-4.5-4.9
			c0-1.4,0.5-2.6,1.6-3.5c1.1-0.9,2.5-1.3,4.2-1.3c1.6,0,2.9,0.3,3.9,0.8l-0.7,2.2c-1-0.5-2.1-0.8-3.3-0.8c-1,0-1.7,0.2-2.3,0.7
			c-0.5,0.4-0.7,0.9-0.7,1.6c0,0.7,0.3,1.2,0.8,1.7c0.5,0.4,1.3,0.8,2.5,1.3c1.5,0.6,2.6,1.3,3.3,2.1
			C112.4,37.3,112.8,38.3,112.8,39.5L112.8,39.5z M121.9,34h-3v6c0,1.5,0.5,2.3,1.6,2.3c0.5,0,0.9,0,1.2-0.1l0.1,2.1
			c-0.5,0.2-1.3,0.3-2.1,0.3c-1.1,0-1.9-0.3-2.5-1c-0.6-0.7-0.9-1.8-0.9-3.3V34h-1.8v-2.1h1.8v-2.3l2.7-0.8v3.1h3L121.9,34L121.9,34
			z M135.5,38c0,1.9-0.5,3.5-1.6,4.7c-1.1,1.3-2.6,1.9-4.5,1.9c-1.8,0-3.3-0.6-4.3-1.8c-1.1-1.2-1.6-2.7-1.6-4.6
			c0-1.9,0.6-3.5,1.7-4.7c1.1-1.2,2.6-1.8,4.5-1.8c1.8,0,3.3,0.6,4.4,1.8C135,34.6,135.5,36.2,135.5,38L135.5,38z M132.7,38.1
			c0-1.1-0.2-2.1-0.7-2.9c-0.6-1-1.4-1.5-2.5-1.5c-1.1,0-1.9,0.5-2.5,1.5c-0.5,0.8-0.7,1.8-0.7,3c0,1.1,0.2,2.1,0.7,2.9
			c0.6,1,1.4,1.5,2.5,1.5c1.1,0,1.9-0.5,2.5-1.5C132.4,40.2,132.7,39.2,132.7,38.1L132.7,38.1z M144.5,34.3
			c-0.3-0.1-0.6-0.1-0.9-0.1c-1,0-1.7,0.4-2.2,1.1c-0.5,0.6-0.7,1.5-0.7,2.4v6.5h-2.7v-8.5c0-1.3,0-2.6-0.1-3.9h2.4l0.1,2.4h0.1
			c0.3-0.8,0.7-1.5,1.4-2c0.6-0.4,1.3-0.7,2-0.7c0.3,0,0.5,0,0.7,0.1L144.5,34.3L144.5,34.3z M156.7,37.5c0,0.4,0,0.8-0.1,1.2h-8.2
			c0,1.2,0.4,2.2,1.2,2.8c0.7,0.6,1.6,0.9,2.7,0.9c1.2,0,2.3-0.2,3.3-0.6l0.4,1.9c-1.2,0.5-2.6,0.8-4.1,0.8c-1.9,0-3.4-0.6-4.5-1.7
			c-1.1-1.1-1.6-2.6-1.6-4.5c0-1.9,0.5-3.4,1.5-4.7c1.1-1.3,2.5-2,4.3-2c1.8,0,3.1,0.7,4,2C156.4,34.7,156.7,36,156.7,37.5
			L156.7,37.5z M154.1,36.8c0-0.8-0.2-1.5-0.5-2.1c-0.5-0.8-1.2-1.1-2.2-1.1c-0.9,0-1.6,0.4-2.2,1.1c-0.5,0.6-0.7,1.3-0.8,2.1
			L154.1,36.8L154.1,36.8z"/>
	</g>
	<g>
		<path class="st1" d="M57.5,21.1c-0.8,0-1.4,0-2-0.1v-8.3c0.8-0.1,1.5-0.2,2.3-0.2c3.2,0,4.6,1.6,4.6,4.1
			C62.5,19.5,60.8,21.1,57.5,21.1z M58,13.6c-0.4,0-0.8,0-1.1,0.1V20c0.2,0,0.5,0,0.9,0c2.1,0,3.2-1.2,3.2-3.4
			C61.1,14.7,60,13.6,58,13.6z M67,21.1c-1.8,0-2.9-1.3-2.9-3.1c0-1.9,1.2-3.2,3-3.2c1.8,0,2.9,1.3,2.9,3.1
			C70.1,19.8,68.8,21.1,67,21.1L67,21.1z M67.1,15.8c-1,0-1.6,0.9-1.6,2.2c0,1.3,0.6,2.2,1.6,2.2c1,0,1.6-1,1.6-2.2
			C68.7,16.7,68,15.8,67.1,15.8L67.1,15.8z M80.2,14.9L78.3,21H77l-0.8-2.6c-0.2-0.6-0.4-1.3-0.5-2h0c-0.1,0.7-0.3,1.3-0.5,2
			L74.4,21h-1.3l-1.8-6.1h1.4l0.7,2.9c0.2,0.7,0.3,1.3,0.4,2h0c0.1-0.5,0.3-1.2,0.5-1.9l0.9-2.9h1.1l0.8,2.8c0.2,0.7,0.4,1.4,0.5,2
			h0c0.1-0.6,0.2-1.3,0.4-2l0.7-2.8L80.2,14.9L80.2,14.9z M87.2,21h-1.4v-3.5c0-1.1-0.4-1.6-1.2-1.6c-0.8,0-1.4,0.7-1.4,1.5V21h-1.4
			v-4.3c0-0.5,0-1.1-0.1-1.7H83l0.1,0.9h0c0.4-0.6,1.1-1.1,1.9-1.1c1.3,0,2.1,1,2.1,2.6L87.2,21L87.2,21z M90.9,21h-1.4v-8.9h1.4V21
			z M95.8,21.1c-1.8,0-2.9-1.3-2.9-3.1c0-1.9,1.2-3.2,3-3.2c1.8,0,2.9,1.3,2.9,3.1C98.9,19.8,97.7,21.1,95.8,21.1L95.8,21.1z
			 M95.9,15.8c-1,0-1.6,0.9-1.6,2.2c0,1.3,0.6,2.2,1.6,2.2c1,0,1.6-1,1.6-2.2C97.5,16.7,96.8,15.8,95.9,15.8L95.9,15.8z M104.2,21
			l-0.1-0.7h0c-0.4,0.6-1,0.8-1.8,0.8c-1.1,0-1.9-0.8-1.9-1.8c0-1.5,1.3-2.3,3.6-2.3V17c0-0.8-0.4-1.2-1.3-1.2
			c-0.6,0-1.1,0.2-1.6,0.5l-0.3-0.9c0.6-0.4,1.3-0.5,2.1-0.5c1.6,0,2.4,0.8,2.4,2.5v2.2c0,0.6,0,1.1,0.1,1.5L104.2,21L104.2,21z
			 M104,18c-1.5,0-2.3,0.4-2.3,1.2c0,0.6,0.4,0.9,0.9,0.9c0.7,0,1.3-0.5,1.3-1.2V18z M111.9,21l-0.1-1h0c-0.4,0.7-1,1.1-2,1.1
			c-1.5,0-2.6-1.3-2.6-3.1c0-1.9,1.1-3.2,2.7-3.2c0.8,0,1.4,0.3,1.7,0.8h0v-3.5h1.4v7.2c0,0.6,0,1.1,0.1,1.6L111.9,21L111.9,21z
			 M111.7,17.4c0-0.9-0.6-1.6-1.4-1.6c-1,0-1.6,0.9-1.6,2.1c0,1.2,0.6,2.1,1.6,2.1c0.8,0,1.5-0.7,1.5-1.6L111.7,17.4L111.7,17.4z
			 M121.6,21.1c-1.8,0-2.9-1.3-2.9-3.1c0-1.9,1.2-3.2,3-3.2c1.8,0,2.9,1.3,2.9,3.1C124.6,19.8,123.4,21.1,121.6,21.1L121.6,21.1z
			 M121.7,15.8c-1,0-1.6,0.9-1.6,2.2c0,1.3,0.6,2.2,1.6,2.2c1,0,1.6-1,1.6-2.2C123.2,16.7,122.6,15.8,121.7,15.8L121.7,15.8z
			 M131.9,21h-1.4v-3.5c0-1.1-0.4-1.6-1.2-1.6c-0.8,0-1.3,0.7-1.3,1.5V21h-1.4v-4.3c0-0.5,0-1.1-0.1-1.7h1.2l0.1,0.9h0
			c0.4-0.6,1.1-1.1,1.9-1.1c1.3,0,2.1,1,2.1,2.6V21z M141,15.9h-1.5v3c0,0.8,0.3,1.1,0.8,1.1c0.2,0,0.4,0,0.6-0.1l0,1
			c-0.3,0.1-0.6,0.2-1,0.2c-1.1,0-1.7-0.6-1.7-2.1v-3.1h-0.9v-1h0.9v-1.1l1.3-0.4v1.5h1.5V15.9L141,15.9z M148.1,21h-1.3v-3.5
			c0-1.1-0.4-1.6-1.2-1.6c-0.7,0-1.4,0.5-1.4,1.4V21h-1.3v-8.9h1.3v3.7h0c0.4-0.7,1-1,1.8-1c1.3,0,2.1,1,2.1,2.6V21L148.1,21z
			 M155.5,18.3h-4.1c0,1.2,0.8,1.8,1.9,1.8c0.6,0,1.2-0.1,1.6-0.3l0.2,0.9c-0.6,0.3-1.3,0.4-2,0.4c-1.9,0-3-1.2-3-3.1
			c0-1.9,1.2-3.3,2.9-3.3c1.6,0,2.5,1.2,2.5,2.9C155.5,17.9,155.5,18.1,155.5,18.3L155.5,18.3z M154.2,17.3c0-0.9-0.5-1.6-1.3-1.6
			c-0.8,0-1.4,0.7-1.5,1.6H154.2L154.2,17.3z"/>
	</g>
</g>
<g class="st2">
	<g id="XMLID_76_" class="st3">
		<path id="XMLID_90_" class="st4" d="M57.4,16.7c0,1.1-0.3,2-1,2.7c-0.8,0.8-1.8,1.2-3,1.2c-1.2,0-2.2-0.4-3-1.2
			c-0.8-0.8-1.2-1.8-1.2-3c0-1.2,0.4-2.2,1.2-3c0.8-0.8,1.8-1.2,3-1.2c0.6,0,1.1,0.1,1.7,0.3c0.5,0.2,0.9,0.5,1.3,0.9l-0.7,0.7
			c-0.5-0.6-1.3-1-2.2-1c-0.9,0-1.6,0.3-2.2,0.9c-0.6,0.6-0.9,1.4-0.9,2.3s0.3,1.7,0.9,2.3c0.6,0.6,1.4,0.9,2.2,0.9
			c0.9,0,1.7-0.3,2.3-0.9c0.4-0.4,0.6-0.9,0.7-1.6h-2.9v-1h3.9C57.4,16.3,57.4,16.5,57.4,16.7z"/>
		<path id="XMLID_88_" class="st4" d="M63.6,13.4H60v2.6h3.3v1H60v2.6h3.7v1h-4.7v-8.1h4.7V13.4z"/>
		<path id="XMLID_86_" class="st4" d="M68,20.4h-1v-7.1h-2.3v-1h5.6v1H68V20.4z"/>
		<path id="XMLID_84_" class="st4" d="M74.3,20.4v-8.1h1v8.1H74.3z"/>
		<path id="XMLID_82_" class="st4" d="M79.9,20.4h-1v-7.1h-2.3v-1h5.6v1h-2.3V20.4z"/>
		<path id="XMLID_79_" class="st4" d="M92.7,19.4c-0.8,0.8-1.8,1.2-3,1.2c-1.2,0-2.2-0.4-3-1.2c-0.8-0.8-1.2-1.8-1.2-3
			s0.4-2.2,1.2-3c0.8-0.8,1.8-1.2,3-1.2c1.2,0,2.2,0.4,3,1.2c0.8,0.8,1.2,1.8,1.2,3C93.9,17.6,93.5,18.6,92.7,19.4z M87.5,18.7
			c0.6,0.6,1.3,0.9,2.2,0.9c0.9,0,1.6-0.3,2.2-0.9c0.6-0.6,0.9-1.4,0.9-2.3s-0.3-1.7-0.9-2.3c-0.6-0.6-1.3-0.9-2.2-0.9
			c-0.9,0-1.6,0.3-2.2,0.9c-0.6,0.6-0.9,1.4-0.9,2.3S86.9,18.1,87.5,18.7z"/>
		<path id="XMLID_77_" class="st4" d="M95.3,20.4v-8.1h1.3l3.9,6.3h0l0-1.6v-4.7h1v8.1h-1.1l-4.1-6.6h0l0,1.6v5H95.3z"/>
	</g>
	<path id="XMLID_52_" class="st5" d="M85.3,32.2c-3.2,0-5.7,2.4-5.7,5.7c0,3.3,2.6,5.7,5.7,5.7c3.2,0,5.7-2.4,5.7-5.7
		C91.1,34.6,88.5,32.2,85.3,32.2z M85.3,41.4c-1.7,0-3.2-1.4-3.2-3.5c0-2.1,1.5-3.5,3.2-3.5c1.7,0,3.2,1.4,3.2,3.5
		C88.6,40,87.1,41.4,85.3,41.4z M72.8,32.2c-3.2,0-5.7,2.4-5.7,5.7c0,3.3,2.6,5.7,5.7,5.7c3.2,0,5.7-2.4,5.7-5.7
		C78.5,34.6,75.9,32.2,72.8,32.2z M72.8,41.4c-1.7,0-3.2-1.4-3.2-3.5c0-2.1,1.5-3.5,3.2-3.5c1.7,0,3.2,1.4,3.2,3.5
		C76,40,74.5,41.4,72.8,41.4z M57.9,34v2.4h5.8c-0.2,1.4-0.6,2.4-1.3,3.1c-0.8,0.8-2.2,1.8-4.5,1.8c-3.6,0-6.4-2.9-6.4-6.5
		c0-3.6,2.8-6.5,6.4-6.5c1.9,0,3.3,0.8,4.4,1.7l1.7-1.7c-1.5-1.4-3.4-2.5-6.1-2.5c-4.9,0-9,4-9,8.9c0,4.9,4.1,8.9,9,8.9
		c2.6,0,4.6-0.9,6.2-2.5c1.6-1.6,2.1-3.9,2.1-5.7c0-0.6,0-1.1-0.1-1.5H57.9z M118.9,35.9c-0.5-1.3-1.9-3.6-4.9-3.6
		c-3,0-5.4,2.3-5.4,5.7c0,3.2,2.4,5.7,5.7,5.7c2.6,0,4.1-1.6,4.8-2.5l-2-1.3c-0.7,1-1.5,1.6-2.8,1.6c-1.3,0-2.2-0.6-2.8-1.7l7.7-3.2
		L118.9,35.9z M111.1,37.8c-0.1-2.2,1.7-3.3,3-3.3c1,0,1.8,0.5,2.1,1.2L111.1,37.8z M104.8,43.3h2.5V26.5h-2.5V43.3z M100.7,33.5
		L100.7,33.5c-0.7-0.7-1.7-1.3-3.1-1.3c-2.9,0-5.5,2.5-5.5,5.7c0,3.2,2.6,5.7,5.5,5.7c1.4,0,2.5-0.6,3-1.3h0.1v0.8
		c0,2.2-1.2,3.4-3.1,3.4c-1.5,0-2.5-1.1-2.9-2l-2.2,0.9c0.6,1.5,2.3,3.4,5.1,3.4c3,0,5.4-1.7,5.4-6V32.6h-2.4V33.5z M97.8,41.4
		c-1.7,0-3.2-1.5-3.2-3.4c0-2,1.5-3.5,3.2-3.5c1.7,0,3.1,1.5,3.1,3.5C100.9,40,99.5,41.4,97.8,41.4z M130.7,26.5h-6v16.8h2.5V37h3.5
		c2.8,0,5.5-2,5.5-5.2S133.4,26.5,130.7,26.5z M130.7,34.6h-3.6v-5.8h3.6c1.9,0,2.9,1.6,2.9,2.9C133.7,33,132.6,34.6,130.7,34.6z
		 M146.3,32.2c-1.8,0-3.7,0.8-4.5,2.6l2.2,0.9c0.5-0.9,1.4-1.2,2.3-1.2c1.3,0,2.6,0.8,2.6,2.2v0.2c-0.5-0.3-1.4-0.6-2.6-0.6
		c-2.4,0-4.9,1.3-4.9,3.8c0,2.3,2,3.7,4.2,3.7c1.7,0,2.6-0.8,3.2-1.6h0.1v1.3h2.4v-6.5C151.4,33.9,149.1,32.2,146.3,32.2z M146,41.4
		c-0.8,0-2-0.4-2-1.4c0-1.3,1.4-1.8,2.7-1.8c1.1,0,1.6,0.2,2.3,0.6C148.7,40.3,147.4,41.4,146,41.4z M160.2,32.6l-2.9,7.3h-0.1
		l-3-7.3h-2.7l4.5,10.2l-2.6,5.7h2.6l6.9-15.9H160.2z M137.6,43.3h2.5V26.5h-2.5V43.3z"/>
	<g id="XMLID_39_" class="st3">
		
			<linearGradient id="XMLID_19_" gradientUnits="userSpaceOnUse" x1="27.9269" y1="422.5806" x2="5.3274" y2="399.981" gradientTransform="matrix(1 0 0 -1 0 437.2427)">
			<stop  offset="0" style="stop-color:#00A0FF"/>
			<stop  offset="6.574450e-03" style="stop-color:#00A1FF"/>
			<stop  offset="0.2601" style="stop-color:#00BEFF"/>
			<stop  offset="0.5122" style="stop-color:#00D2FF"/>
			<stop  offset="0.7604" style="stop-color:#00DFFF"/>
			<stop  offset="1" style="stop-color:#00E3FF"/>
		</linearGradient>
		<path id="XMLID_8_" class="st6" d="M12.6,13.1C12.2,13.5,12,14.1,12,15v29.8c0,0.8,0.2,1.5,0.6,1.9l0.1,0.1l16.7-16.7v-0.2v-0.2
			L12.6,13.1L12.6,13.1z"/>
		
			<linearGradient id="XMLID_35_" gradientUnits="userSpaceOnUse" x1="44.133" y1="407.3749" x2="11.549" y2="407.3749" gradientTransform="matrix(1 0 0 -1 0 437.2427)">
			<stop  offset="0" style="stop-color:#FFE000"/>
			<stop  offset="0.4087" style="stop-color:#FFBD00"/>
			<stop  offset="0.7754" style="stop-color:#FFA500"/>
			<stop  offset="1" style="stop-color:#FF9C00"/>
		</linearGradient>
		<path id="XMLID_7_" class="st7" d="M35,35.6l-5.6-5.6v-0.2v-0.2l5.6-5.6l0.1,0.1l6.6,3.7c1.9,1.1,1.9,2.8,0,3.9l-6.6,3.7L35,35.6z
			"/>
		
			<linearGradient id="XMLID_36_" gradientUnits="userSpaceOnUse" x1="32.0034" y1="404.2849" x2="1.3567" y2="373.6381" gradientTransform="matrix(1 0 0 -1 0 437.2427)">
			<stop  offset="0" style="stop-color:#FF3A44"/>
			<stop  offset="1" style="stop-color:#C31162"/>
		</linearGradient>
		<path id="XMLID_6_" class="st8" d="M35.1,35.6l-5.7-5.7L12.6,46.7c0.6,0.7,1.6,0.7,2.8,0.1L35.1,35.6"/>
		
			<linearGradient id="XMLID_37_" gradientUnits="userSpaceOnUse" x1="8.3977" y1="434.072" x2="22.0827" y2="420.3869" gradientTransform="matrix(1 0 0 -1 0 437.2427)">
			<stop  offset="0" style="stop-color:#32A071"/>
			<stop  offset="6.850000e-02" style="stop-color:#2DA771"/>
			<stop  offset="0.4762" style="stop-color:#15CF74"/>
			<stop  offset="0.8009" style="stop-color:#06E775"/>
			<stop  offset="1" style="stop-color:#00F076"/>
		</linearGradient>
		<path id="XMLID_5_" class="st9" d="M35.1,24.2L15.4,13c-1.2-0.7-2.2-0.6-2.8,0.1l16.8,16.8L35.1,24.2z"/>
		<g id="XMLID_42_">
			<path id="XMLID_4_" class="st10" d="M35,35.4L15.4,46.5c-1.1,0.6-2.1,0.6-2.7,0l0,0l-0.1,0.1l0,0l0.1,0.1l0,0
				c0.6,0.6,1.6,0.6,2.7,0l19.7-11.2L35,35.4z"/>
			<path id="XMLID_3_" class="st11" d="M12.6,46.5C12.2,46,12,45.4,12,44.6v0.2c0,0.8,0.2,1.5,0.6,1.9l0.1-0.1L12.6,46.5z"/>
		</g>
		<path id="XMLID_2_" class="st11" d="M41.7,31.6L35,35.4l0.1,0.1l6.6-3.7c0.9-0.5,1.4-1.2,1.4-1.9l0,0C43,30.5,42.5,31.1,41.7,31.6
			z"/>
		<path id="XMLID_1_" class="st12" d="M15.4,13.2l26.3,14.9c0.9,0.5,1.3,1.1,1.4,1.7l0,0c0-0.7-0.5-1.4-1.4-1.9L15.4,13
			c-1.9-1.1-3.4-0.2-3.4,2v0.2C12,13,13.5,12.1,15.4,13.2z"/>
	</g>
</g>
</svg>
