<?xml version="1.0" encoding="utf-8"?>
<!-- Generator: Adobe Illustrator 20.1.0, SVG Export Plug-In . SVG Version: 6.00 Build 0)  -->
<svg version="1.1" id="Слой_1" xmlns="http://www.w3.org/2000/svg" xmlns:xlink="http://www.w3.org/1999/xlink" x="0px" y="0px"
	 viewBox="0 0 190 61" style="enable-background:new 0 0 190 61;" xml:space="preserve">
<style type="text/css">
	.st0{fill:#2B2C35;}
	.st1{display:none;}
	.st2{display:inline;fill:#FFFFFF;}
	.st3{display:inline;}
	.st4{fill:#FFFFFF;}
	.st5{fill:#FFFFFF;stroke:#FFFFFF;stroke-width:0.2;stroke-miterlimit:10;}
	.st6{fill:url(#XMLID_19_);}
	.st7{fill:url(#XMLID_35_);}
	.st8{fill:url(#XMLID_36_);}
	.st9{fill:url(#XMLID_37_);}
	.st10{opacity:0.2;enable-background:new    ;}
	.st11{opacity:0.12;enable-background:new    ;}
	.st12{opacity:0.25;fill:#FFFFFF;enable-background:new    ;}
</style>
<rect class="st0" width="190" height="61"/>
<g class="st1">
	<path class="st2" d="M45.6,29.2c0-4.2,3.4-6.2,3.6-6.3c-1.9-2.8-5-3.2-6-3.3c-2.5-0.3-5,1.5-6.3,1.5c-1.3,0-3.3-1.5-5.5-1.4
		c-2.8,0-5.3,1.6-6.8,4.1c-2.9,5.1-0.7,12.5,2.1,16.6c1.4,2,3,4.2,5.2,4.2c2.1-0.1,2.9-1.3,5.4-1.3c2.5,0,3.2,1.3,5.4,1.3
		c2.2,0,3.7-2,5-4c1.6-2.3,2.3-4.6,2.3-4.7C50,35.8,45.6,34.2,45.6,29.2L45.6,29.2z M41.5,17c1.1-1.4,1.9-3.3,1.7-5.3
		c-1.6,0.1-3.7,1.1-4.8,2.5c-1,1.2-2,3.2-1.7,5.1C38.4,19.4,40.3,18.4,41.5,17L41.5,17z"/>
	<g class="st3">
		<path class="st4" d="M75.9,44.3H73l-1.6-5h-5.6l-1.5,5h-2.9L67,27.1h3.4L75.9,44.3L75.9,44.3z M70.9,37.1l-1.5-4.5
			c-0.2-0.5-0.4-1.5-0.9-3.2h-0.1c-0.2,0.7-0.4,1.8-0.8,3.2l-1.4,4.5H70.9z M90.1,38c0,2.1-0.6,3.8-1.7,5c-1,1.1-2.3,1.6-3.8,1.6
			c-1.6,0-2.8-0.6-3.5-1.8v6.5h-2.7V36c0-1.3,0-2.7-0.1-4.1h2.4l0.2,2h0.1c0.9-1.5,2.3-2.2,4.2-2.2c1.5,0,2.7,0.6,3.7,1.7
			C89.6,34.6,90.1,36.1,90.1,38L90.1,38z M87.3,38.1c0-1.2-0.3-2.2-0.8-3c-0.6-0.8-1.4-1.2-2.4-1.2c-0.7,0-1.3,0.2-1.8,0.7
			c-0.6,0.5-0.9,1-1.1,1.8c-0.1,0.3-0.1,0.6-0.1,0.8v2.1c0,0.9,0.3,1.7,0.8,2.3c0.6,0.6,1.3,0.9,2.2,0.9c1,0,1.8-0.4,2.4-1.2
			C87,40.4,87.3,39.4,87.3,38.1z M104.4,38c0,2.1-0.6,3.8-1.7,5c-1,1.1-2.3,1.6-3.8,1.6c-1.6,0-2.8-0.6-3.5-1.8v6.5h-2.7V36
			c0-1.3,0-2.7-0.1-4.1h2.4l0.2,2h0.1c0.9-1.5,2.3-2.2,4.2-2.2c1.5,0,2.7,0.6,3.7,1.7C103.9,34.6,104.4,36.1,104.4,38L104.4,38z
			 M101.6,38.1c0-1.2-0.3-2.2-0.8-3c-0.6-0.8-1.4-1.2-2.4-1.2c-0.7,0-1.3,0.2-1.8,0.7c-0.6,0.5-0.9,1-1.1,1.8
			c-0.1,0.3-0.1,0.6-0.1,0.8v2.1c0,0.9,0.3,1.7,0.8,2.3c0.6,0.6,1.3,0.9,2.2,0.9c1,0,1.8-0.4,2.4-1.2
			C101.3,40.4,101.6,39.4,101.6,38.1z M120.3,39.5c0,1.5-0.5,2.6-1.5,3.6c-1.1,1-2.7,1.5-4.7,1.5c-1.8,0-3.3-0.4-4.4-1.1l0.6-2.3
			c1.2,0.7,2.5,1.1,4,1.1c1,0,1.8-0.2,2.4-0.7c0.6-0.5,0.9-1.1,0.9-1.9c0-0.7-0.2-1.3-0.7-1.8c-0.5-0.5-1.3-0.9-2.4-1.3
			c-3-1.1-4.5-2.8-4.5-4.9c0-1.4,0.5-2.6,1.6-3.5c1.1-0.9,2.5-1.3,4.2-1.3c1.6,0,2.9,0.3,3.9,0.8l-0.7,2.2c-1-0.5-2.1-0.8-3.3-0.8
			c-1,0-1.7,0.2-2.3,0.7c-0.5,0.4-0.7,0.9-0.7,1.6c0,0.7,0.3,1.2,0.8,1.7c0.5,0.4,1.3,0.8,2.5,1.3c1.5,0.6,2.6,1.3,3.3,2.1
			C119.9,37.3,120.3,38.3,120.3,39.5L120.3,39.5z M129.4,34h-3v6c0,1.5,0.5,2.3,1.6,2.3c0.5,0,0.9,0,1.2-0.1l0.1,2.1
			c-0.5,0.2-1.3,0.3-2.1,0.3c-1.1,0-1.9-0.3-2.5-1c-0.6-0.7-0.9-1.8-0.9-3.3V34h-1.8v-2.1h1.8v-2.3l2.7-0.8v3.1h3V34L129.4,34z
			 M143,38c0,1.9-0.5,3.5-1.6,4.7c-1.1,1.3-2.6,1.9-4.5,1.9c-1.8,0-3.3-0.6-4.3-1.8c-1.1-1.2-1.6-2.7-1.6-4.6c0-1.9,0.6-3.5,1.7-4.7
			c1.1-1.2,2.6-1.8,4.5-1.8c1.8,0,3.3,0.6,4.4,1.8C142.5,34.6,143,36.2,143,38L143,38z M140.2,38.1c0-1.1-0.2-2.1-0.7-2.9
			c-0.6-1-1.4-1.5-2.5-1.5c-1.1,0-1.9,0.5-2.5,1.5c-0.5,0.8-0.7,1.8-0.7,3c0,1.1,0.2,2.1,0.7,2.9c0.6,1,1.4,1.5,2.5,1.5
			c1.1,0,1.9-0.5,2.5-1.5C139.9,40.2,140.2,39.2,140.2,38.1L140.2,38.1z M152,34.3c-0.3-0.1-0.6-0.1-0.9-0.1c-1,0-1.7,0.4-2.2,1.1
			c-0.5,0.6-0.7,1.5-0.7,2.4v6.5h-2.7v-8.5c0-1.3,0-2.6-0.1-3.9h2.4l0.1,2.4h0.1c0.3-0.8,0.7-1.5,1.4-2c0.6-0.4,1.3-0.7,2-0.7
			c0.3,0,0.5,0,0.7,0.1L152,34.3L152,34.3z M164.2,37.5c0,0.4,0,0.8-0.1,1.2h-8.2c0,1.2,0.4,2.2,1.2,2.8c0.7,0.6,1.6,0.9,2.7,0.9
			c1.2,0,2.3-0.2,3.3-0.6l0.4,1.9c-1.2,0.5-2.6,0.8-4.1,0.8c-1.9,0-3.4-0.6-4.5-1.7c-1.1-1.1-1.6-2.6-1.6-4.5c0-1.9,0.5-3.4,1.5-4.7
			c1.1-1.3,2.5-2,4.3-2c1.8,0,3.1,0.7,4,2C163.9,34.7,164.2,36,164.2,37.5L164.2,37.5z M161.6,36.8c0-0.8-0.2-1.5-0.5-2.1
			c-0.5-0.8-1.2-1.1-2.2-1.1c-0.9,0-1.6,0.4-2.2,1.1c-0.5,0.6-0.7,1.3-0.8,2.1L161.6,36.8L161.6,36.8z"/>
	</g>
	<g class="st3">
		<path class="st4" d="M65,21.1c-0.8,0-1.4,0-2-0.1v-8.3c0.8-0.1,1.5-0.2,2.3-0.2c3.2,0,4.6,1.6,4.6,4.1C70,19.5,68.3,21.1,65,21.1z
			 M65.5,13.6c-0.4,0-0.8,0-1.1,0.1V20c0.2,0,0.5,0,0.9,0c2.1,0,3.2-1.2,3.2-3.4C68.6,14.7,67.5,13.6,65.5,13.6z M74.5,21.1
			c-1.8,0-2.9-1.3-2.9-3.1c0-1.9,1.2-3.2,3-3.2c1.8,0,2.9,1.3,2.9,3.1C77.6,19.8,76.3,21.1,74.5,21.1L74.5,21.1z M74.6,15.8
			c-1,0-1.6,0.9-1.6,2.2c0,1.3,0.6,2.2,1.6,2.2c1,0,1.6-1,1.6-2.2C76.2,16.7,75.5,15.8,74.6,15.8L74.6,15.8z M87.7,14.9L85.8,21
			h-1.2l-0.8-2.6c-0.2-0.6-0.4-1.3-0.5-2h0c-0.1,0.7-0.3,1.3-0.5,2L81.9,21h-1.3l-1.8-6.1h1.4l0.7,2.9c0.2,0.7,0.3,1.3,0.4,2h0
			c0.1-0.5,0.3-1.2,0.5-1.9l0.9-2.9h1.1l0.8,2.8c0.2,0.7,0.4,1.4,0.5,2h0c0.1-0.6,0.2-1.3,0.4-2l0.7-2.8L87.7,14.9L87.7,14.9z
			 M94.7,21h-1.4v-3.5c0-1.1-0.4-1.6-1.2-1.6c-0.8,0-1.4,0.7-1.4,1.5V21h-1.4v-4.3c0-0.5,0-1.1-0.1-1.7h1.2l0.1,0.9h0
			c0.4-0.6,1.1-1.1,1.9-1.1c1.3,0,2.1,1,2.1,2.6L94.7,21L94.7,21z M98.4,21h-1.4v-8.9h1.4V21z M103.3,21.1c-1.8,0-2.9-1.3-2.9-3.1
			c0-1.9,1.2-3.2,3-3.2c1.8,0,2.9,1.3,2.9,3.1C106.4,19.8,105.2,21.1,103.3,21.1L103.3,21.1z M103.4,15.8c-1,0-1.6,0.9-1.6,2.2
			c0,1.3,0.6,2.2,1.6,2.2c1,0,1.6-1,1.6-2.2C105,16.7,104.3,15.8,103.4,15.8L103.4,15.8z M111.7,21l-0.1-0.7h0
			c-0.4,0.6-1,0.8-1.8,0.8c-1.1,0-1.9-0.8-1.9-1.8c0-1.5,1.3-2.3,3.6-2.3V17c0-0.8-0.4-1.2-1.3-1.2c-0.6,0-1.1,0.2-1.6,0.5l-0.3-0.9
			c0.6-0.4,1.3-0.5,2.1-0.5c1.6,0,2.4,0.8,2.4,2.5v2.2c0,0.6,0,1.1,0.1,1.5L111.7,21L111.7,21z M111.5,18c-1.5,0-2.3,0.4-2.3,1.2
			c0,0.6,0.4,0.9,0.9,0.9c0.7,0,1.3-0.5,1.3-1.2V18z M119.4,21l-0.1-1h0c-0.4,0.7-1,1.1-2,1.1c-1.5,0-2.6-1.3-2.6-3.1
			c0-1.9,1.1-3.2,2.7-3.2c0.8,0,1.4,0.3,1.7,0.8h0v-3.5h1.4v7.2c0,0.6,0,1.1,0.1,1.6L119.4,21L119.4,21z M119.2,17.4
			c0-0.9-0.6-1.6-1.4-1.6c-1,0-1.6,0.9-1.6,2.1c0,1.2,0.6,2.1,1.6,2.1c0.8,0,1.5-0.7,1.5-1.6L119.2,17.4L119.2,17.4z M129.1,21.1
			c-1.8,0-2.9-1.3-2.9-3.1c0-1.9,1.2-3.2,3-3.2c1.8,0,2.9,1.3,2.9,3.1C132.1,19.8,130.9,21.1,129.1,21.1L129.1,21.1z M129.2,15.8
			c-1,0-1.6,0.9-1.6,2.2c0,1.3,0.6,2.2,1.6,2.2c1,0,1.6-1,1.6-2.2C130.7,16.7,130.1,15.8,129.2,15.8L129.2,15.8z M139.4,21h-1.4
			v-3.5c0-1.1-0.4-1.6-1.2-1.6c-0.8,0-1.3,0.7-1.3,1.5V21h-1.4v-4.3c0-0.5,0-1.1-0.1-1.7h1.2l0.1,0.9h0c0.4-0.6,1.1-1.1,1.9-1.1
			c1.3,0,2.1,1,2.1,2.6V21z M148.5,15.9H147v3c0,0.8,0.3,1.1,0.8,1.1c0.2,0,0.4,0,0.6-0.1l0,1c-0.3,0.1-0.6,0.2-1,0.2
			c-1.1,0-1.7-0.6-1.7-2.1v-3.1h-0.9v-1h0.9v-1.1l1.3-0.4v1.5h1.5V15.9L148.5,15.9z M155.6,21h-1.3v-3.5c0-1.1-0.4-1.6-1.2-1.6
			c-0.7,0-1.4,0.5-1.4,1.4V21h-1.3v-8.9h1.3v3.7h0c0.4-0.7,1-1,1.8-1c1.3,0,2.1,1,2.1,2.6V21L155.6,21z M163,18.3h-4.1
			c0,1.2,0.8,1.8,1.9,1.8c0.6,0,1.2-0.1,1.6-0.3l0.2,0.9c-0.6,0.3-1.3,0.4-2,0.4c-1.9,0-3-1.2-3-3.1c0-1.9,1.2-3.3,2.9-3.3
			c1.6,0,2.5,1.2,2.5,2.9C163,17.9,163,18.1,163,18.3L163,18.3z M161.7,17.3c0-0.9-0.5-1.6-1.3-1.6c-0.8,0-1.4,0.7-1.5,1.6H161.7
			L161.7,17.3z"/>
	</g>
</g>
<g>
	<g id="XMLID_76_">
		<path id="XMLID_90_" class="st5" d="M64.9,16.7c0,1.1-0.3,2-1,2.7c-0.8,0.8-1.8,1.2-3,1.2c-1.2,0-2.2-0.4-3-1.2
			c-0.8-0.8-1.2-1.8-1.2-3c0-1.2,0.4-2.2,1.2-3c0.8-0.8,1.8-1.2,3-1.2c0.6,0,1.1,0.1,1.7,0.3c0.5,0.2,0.9,0.5,1.3,0.9l-0.7,0.7
			c-0.5-0.6-1.3-1-2.2-1c-0.9,0-1.6,0.3-2.2,0.9c-0.6,0.6-0.9,1.4-0.9,2.3s0.3,1.7,0.9,2.3c0.6,0.6,1.4,0.9,2.2,0.9
			c0.9,0,1.7-0.3,2.3-0.9c0.4-0.4,0.6-0.9,0.7-1.6H61v-1h3.9C64.9,16.3,64.9,16.5,64.9,16.7z"/>
		<path id="XMLID_88_" class="st5" d="M71.1,13.4h-3.7v2.6h3.3v1h-3.3v2.6h3.7v1h-4.7v-8.1h4.7V13.4z"/>
		<path id="XMLID_86_" class="st5" d="M75.5,20.4h-1v-7.1h-2.3v-1h5.6v1h-2.3V20.4z"/>
		<path id="XMLID_84_" class="st5" d="M81.8,20.4v-8.1h1v8.1H81.8z"/>
		<path id="XMLID_82_" class="st5" d="M87.4,20.4h-1v-7.1h-2.3v-1h5.6v1h-2.3V20.4z"/>
		<path id="XMLID_79_" class="st5" d="M100.2,19.4c-0.8,0.8-1.8,1.2-3,1.2c-1.2,0-2.2-0.4-3-1.2c-0.8-0.8-1.2-1.8-1.2-3
			s0.4-2.2,1.2-3c0.8-0.8,1.8-1.2,3-1.2c1.2,0,2.2,0.4,3,1.2c0.8,0.8,1.2,1.8,1.2,3C101.4,17.6,101,18.6,100.2,19.4z M95,18.7
			c0.6,0.6,1.3,0.9,2.2,0.9c0.9,0,1.6-0.3,2.2-0.9c0.6-0.6,0.9-1.4,0.9-2.3s-0.3-1.7-0.9-2.3c-0.6-0.6-1.3-0.9-2.2-0.9
			c-0.9,0-1.6,0.3-2.2,0.9c-0.6,0.6-0.9,1.4-0.9,2.3S94.4,18.1,95,18.7z"/>
		<path id="XMLID_77_" class="st5" d="M102.8,20.4v-8.1h1.3l3.9,6.3h0l0-1.6v-4.7h1v8.1H108l-4.1-6.6h0l0,1.6v5H102.8z"/>
	</g>
	<path id="XMLID_52_" class="st4" d="M92.8,32.2c-3.2,0-5.7,2.4-5.7,5.7c0,3.3,2.6,5.7,5.7,5.7c3.2,0,5.7-2.4,5.7-5.7
		C98.6,34.6,96,32.2,92.8,32.2z M92.8,41.4c-1.7,0-3.2-1.4-3.2-3.5c0-2.1,1.5-3.5,3.2-3.5c1.7,0,3.2,1.4,3.2,3.5
		C96.1,40,94.6,41.4,92.8,41.4z M80.3,32.2c-3.2,0-5.7,2.4-5.7,5.7c0,3.3,2.6,5.7,5.7,5.7c3.2,0,5.7-2.4,5.7-5.7
		C86,34.6,83.4,32.2,80.3,32.2z M80.3,41.4C78.5,41.4,77,40,77,38c0-2.1,1.5-3.5,3.2-3.5c1.7,0,3.2,1.4,3.2,3.5
		C83.5,40,82,41.4,80.3,41.4z M65.4,34v2.4h5.8c-0.2,1.4-0.6,2.4-1.3,3.1c-0.8,0.8-2.2,1.8-4.5,1.8c-3.6,0-6.4-2.9-6.4-6.5
		c0-3.6,2.8-6.5,6.4-6.5c1.9,0,3.3,0.8,4.4,1.7l1.7-1.7c-1.5-1.4-3.4-2.5-6.1-2.5c-4.9,0-9,4-9,8.9c0,4.9,4.1,8.9,9,8.9
		c2.6,0,4.6-0.9,6.2-2.5c1.6-1.6,2.1-3.9,2.1-5.7c0-0.6,0-1.1-0.1-1.5H65.4z M126.4,35.9c-0.5-1.3-1.9-3.6-4.9-3.6
		c-3,0-5.4,2.3-5.4,5.7c0,3.2,2.4,5.7,5.7,5.7c2.6,0,4.1-1.6,4.8-2.5l-2-1.3c-0.7,1-1.5,1.6-2.8,1.6c-1.3,0-2.2-0.6-2.8-1.7l7.7-3.2
		L126.4,35.9z M118.6,37.8c-0.1-2.2,1.7-3.3,3-3.3c1,0,1.8,0.5,2.1,1.2L118.6,37.8z M112.3,43.3h2.5V26.5h-2.5V43.3z M108.2,33.5
		L108.2,33.5c-0.7-0.7-1.7-1.3-3.1-1.3c-2.9,0-5.5,2.5-5.5,5.7c0,3.2,2.6,5.7,5.5,5.7c1.4,0,2.5-0.6,3-1.3h0.1v0.8
		c0,2.2-1.2,3.4-3.1,3.4c-1.5,0-2.5-1.1-2.9-2l-2.2,0.9c0.6,1.5,2.3,3.4,5.1,3.4c3,0,5.4-1.7,5.4-6V32.6h-2.4V33.5z M105.3,41.4
		c-1.7,0-3.2-1.5-3.2-3.4c0-2,1.5-3.5,3.2-3.5c1.7,0,3.1,1.5,3.1,3.5C108.4,40,107,41.4,105.3,41.4z M138.2,26.5h-6v16.8h2.5V37h3.5
		c2.8,0,5.5-2,5.5-5.2S140.9,26.5,138.2,26.5z M138.2,34.6h-3.6v-5.8h3.6c1.9,0,2.9,1.6,2.9,2.9C141.2,33,140.1,34.6,138.2,34.6z
		 M153.8,32.2c-1.8,0-3.7,0.8-4.5,2.6l2.2,0.9c0.5-0.9,1.4-1.2,2.3-1.2c1.3,0,2.6,0.8,2.6,2.2v0.2c-0.5-0.3-1.4-0.6-2.6-0.6
		c-2.4,0-4.9,1.3-4.9,3.8c0,2.3,2,3.7,4.2,3.7c1.7,0,2.6-0.8,3.2-1.6h0.1v1.3h2.4v-6.5C158.9,33.9,156.6,32.2,153.8,32.2z
		 M153.5,41.4c-0.8,0-2-0.4-2-1.4c0-1.3,1.4-1.8,2.7-1.8c1.1,0,1.6,0.2,2.3,0.6C156.2,40.3,154.9,41.4,153.5,41.4z M167.7,32.6
		l-2.9,7.3h-0.1l-3-7.3H159l4.5,10.2l-2.6,5.7h2.6l6.9-15.9H167.7z M145.1,43.3h2.5V26.5h-2.5V43.3z"/>
	<g id="XMLID_39_">
		
			<linearGradient id="XMLID_19_" gradientUnits="userSpaceOnUse" x1="35.4269" y1="422.5806" x2="12.8274" y2="399.981" gradientTransform="matrix(1 0 0 -1 0 437.2427)">
			<stop  offset="0" style="stop-color:#00A0FF"/>
			<stop  offset="6.574450e-03" style="stop-color:#00A1FF"/>
			<stop  offset="0.2601" style="stop-color:#00BEFF"/>
			<stop  offset="0.5122" style="stop-color:#00D2FF"/>
			<stop  offset="0.7604" style="stop-color:#00DFFF"/>
			<stop  offset="1" style="stop-color:#00E3FF"/>
		</linearGradient>
		<path id="XMLID_8_" class="st6" d="M20.1,13.1c-0.4,0.4-0.6,1.1-0.6,1.9v29.8c0,0.8,0.2,1.5,0.6,1.9l0.1,0.1l16.7-16.7v-0.2v-0.2
			L20.1,13.1L20.1,13.1z"/>
		
			<linearGradient id="XMLID_35_" gradientUnits="userSpaceOnUse" x1="51.633" y1="407.3749" x2="19.049" y2="407.3749" gradientTransform="matrix(1 0 0 -1 0 437.2427)">
			<stop  offset="0" style="stop-color:#FFE000"/>
			<stop  offset="0.4087" style="stop-color:#FFBD00"/>
			<stop  offset="0.7754" style="stop-color:#FFA500"/>
			<stop  offset="1" style="stop-color:#FF9C00"/>
		</linearGradient>
		<path id="XMLID_7_" class="st7" d="M42.5,35.6l-5.6-5.6v-0.2v-0.2l5.6-5.6l0.1,0.1l6.6,3.7c1.9,1.1,1.9,2.8,0,3.9l-6.6,3.7
			L42.5,35.6z"/>
		
			<linearGradient id="XMLID_36_" gradientUnits="userSpaceOnUse" x1="39.5034" y1="404.2849" x2="8.8567" y2="373.6381" gradientTransform="matrix(1 0 0 -1 0 437.2427)">
			<stop  offset="0" style="stop-color:#FF3A44"/>
			<stop  offset="1" style="stop-color:#C31162"/>
		</linearGradient>
		<path id="XMLID_6_" class="st8" d="M42.6,35.6l-5.7-5.7L20.1,46.7c0.6,0.7,1.6,0.7,2.8,0.1L42.6,35.6"/>
		
			<linearGradient id="XMLID_37_" gradientUnits="userSpaceOnUse" x1="15.8977" y1="434.072" x2="29.5827" y2="420.3869" gradientTransform="matrix(1 0 0 -1 0 437.2427)">
			<stop  offset="0" style="stop-color:#32A071"/>
			<stop  offset="6.850000e-02" style="stop-color:#2DA771"/>
			<stop  offset="0.4762" style="stop-color:#15CF74"/>
			<stop  offset="0.8009" style="stop-color:#06E775"/>
			<stop  offset="1" style="stop-color:#00F076"/>
		</linearGradient>
		<path id="XMLID_5_" class="st9" d="M42.6,24.2L22.9,13c-1.2-0.7-2.2-0.6-2.8,0.1l16.8,16.8L42.6,24.2z"/>
		<g id="XMLID_42_">
			<path id="XMLID_4_" class="st10" d="M42.5,35.4L22.9,46.5c-1.1,0.6-2.1,0.6-2.7,0l0,0l-0.1,0.1l0,0l0.1,0.1l0,0
				c0.6,0.6,1.6,0.6,2.7,0l19.7-11.2L42.5,35.4z"/>
			<path id="XMLID_3_" class="st11" d="M20.1,46.5c-0.4-0.4-0.6-1.1-0.6-1.9v0.2c0,0.8,0.2,1.5,0.6,1.9l0.1-0.1L20.1,46.5z"/>
		</g>
		<path id="XMLID_2_" class="st11" d="M49.2,31.6l-6.7,3.8l0.1,0.1l6.6-3.7c0.9-0.5,1.4-1.2,1.4-1.9l0,0
			C50.5,30.5,50,31.1,49.2,31.6z"/>
		<path id="XMLID_1_" class="st12" d="M22.9,13.2l26.3,14.9c0.9,0.5,1.3,1.1,1.4,1.7l0,0c0-0.7-0.5-1.4-1.4-1.9L22.9,13
			c-1.9-1.1-3.4-0.2-3.4,2v0.2C19.5,13,21,12.1,22.9,13.2z"/>
	</g>
</g>
</svg>
