<svg xmlns="http://www.w3.org/2000/svg" xmlns:xlink="http://www.w3.org/1999/xlink" width="157" height="43" viewBox="0 0 157 43">
  <metadata><?xpacket begin="﻿" id="W5M0MpCehiHzreSzNTczkc9d"?>
<x:xmpmeta xmlns:x="adobe:ns:meta/" x:xmptk="Adobe XMP Core 5.6-c142 79.160924, 2017/07/13-01:06:39        ">
   <rdf:RDF xmlns:rdf="http://www.w3.org/1999/02/22-rdf-syntax-ns#">
      <rdf:Description rdf:about=""/>
   </rdf:RDF>
</x:xmpmeta>
                                                                                                    
                                                                                                    
                                                                                                    
                                                                                                    
                                                                                                    
                                                                                                    
                                                                                                    
                                                                                                    
                                                                                                    
                                                                                                    
                                                                                                    
                                                                                                    
                                                                                                    
                                                                                                    
                                                                                                    
                                                                                                    
                                                                                                    
                                                                                                    
                                                                                                    
                                                                                                    
                           
<?xpacket end="w"?></metadata>
<defs>
    <style>
      .cls-1 {
        fill-rule: evenodd;
        filter: url(#filter);
      }
    </style>
    <filter id="filter" x="660" y="460" width="157" height="43" filterUnits="userSpaceOnUse">
      <feFlood result="flood" flood-color="#00963f"/>
      <feComposite result="composite" operator="in" in2="SourceGraphic"/>
      <feBlend result="blend" in2="SourceGraphic"/>
    </filter>
  </defs>
  <path id="_3" data-name="3" class="cls-1" d="M661,483h10a1,1,0,0,1,0,2H661A1,1,0,0,1,661,483Zm13-9h12a1,1,0,0,1,0,2H674A1,1,0,0,1,674,474Zm9,14h5a1,1,0,0,1,0,2h-5A1,1,0,0,1,683,488Zm106-14h7a1,1,0,0,1,0,2h-7A1,1,0,0,1,789,474Zm1,14h11a1,1,0,0,1,0,2H790A1,1,0,0,1,790,488Zm12-8h14a1,1,0,0,1,0,2H802A1,1,0,0,1,802,480Zm-44.42,13.212a0.953,0.953,0,0,1-.662-0.265l-11.133-10.53a0.979,0.979,0,0,1-.042-1.377A0.956,0.956,0,0,1,747.11,481l11.133,10.53a0.98,0.98,0,0,1,.043,1.377A0.961,0.961,0,0,1,757.58,493.212Zm-37.162,0a0.964,0.964,0,0,1-.706-0.308,0.979,0.979,0,0,1,.043-1.377L730.891,481a0.963,0.963,0,0,1,1.368.043,0.98,0.98,0,0,1-.042,1.377l-11.137,10.53A0.953,0.953,0,0,1,720.418,493.212ZM764.164,503H713.836A4.862,4.862,0,0,1,709,498.126V464.872A4.862,4.862,0,0,1,713.836,460h50.328A4.862,4.862,0,0,1,769,464.872v33.254A4.862,4.862,0,0,1,764.164,503Zm-50.328-41.057a2.918,2.918,0,0,0-2.9,2.926v33.254a2.917,2.917,0,0,0,2.9,2.926h50.328a2.917,2.917,0,0,0,2.9-2.926V464.872a2.918,2.918,0,0,0-2.9-2.926H713.836ZM739,486.4a5.379,5.379,0,0,1-3.552-1.292l-24.843-21.85a0.984,0.984,0,0,1-.1-1.377,0.968,0.968,0,0,1,1.366-.094l24.843,21.848a3.6,3.6,0,0,0,4.56,0l24.812-21.812a0.962,0.962,0,0,1,1.366.093,0.984,0.984,0,0,1-.093,1.377l-24.812,21.813A5.374,5.374,0,0,1,739,486.4Z" transform="translate(-660 -460)"/>
</svg>
